<svg width="156" height="43" viewBox="0 0 156 43" fill="none" xmlns="http://www.w3.org/2000/svg">
<path d="M137.34 42.9206H132.256C131.419 42.9206 131 42.5024 131 41.666V2.17522C131 1.3388 131.419 0.920593 132.256 0.920593H137.34C138.177 0.920593 138.596 1.3388 138.596 2.17522V15.6773H138.835C139.712 13.5266 141.666 12.4512 144.696 12.4512H146.61C152.87 12.4512 156 15.6973 156 22.1894V41.666C156 42.5024 155.561 42.9206 154.684 42.9206H149.66C148.823 42.9206 148.404 42.5024 148.404 41.666V22.5479C148.404 21.2734 148.125 20.3772 147.567 19.8594C147.049 19.3018 146.152 19.023 144.876 19.023H142.722C139.971 19.023 138.596 20.5365 138.596 23.5636V41.666C138.596 42.5024 138.177 42.9206 137.34 42.9206Z" fill="#F6BF8C"/>
<path d="M128 37.6853V41.7441C128 42.1755 127.9 42.4892 127.701 42.6853C127.542 42.8422 127.224 42.9206 126.746 42.9206H117.851C114.706 42.9206 112.279 42.0971 110.567 40.45C108.856 38.8029 108 36.4304 108 33.3324V22.5088C108 19.4108 108.856 17.0382 110.567 15.3912C112.279 13.7441 114.706 12.9206 117.851 12.9206H126.746C127.582 12.9206 128 13.3324 128 14.1559V18.2147C128 18.6461 127.9 18.9598 127.701 19.1559C127.542 19.3128 127.224 19.3912 126.746 19.3912H119.045C117.811 19.3912 116.915 19.6657 116.358 20.2147C115.841 20.7245 115.582 21.6069 115.582 22.8618V32.9794C115.582 34.2343 115.841 35.1363 116.358 35.6853C116.915 36.1951 117.811 36.45 119.045 36.45H126.746C127.582 36.45 128 36.8618 128 37.6853Z" fill="#F6BF8C"/>
<path d="M89.6219 19.0587H87.2469C86.7719 19.0587 86.4354 18.9792 86.2375 18.8201C86.0792 18.661 86 18.3429 86 17.8656V13.7495C86 12.9143 86.4156 12.4967 87.2469 12.4967H89.6219C90.0573 12.4967 90.275 12.278 90.275 11.8405V6.17334C90.275 5.33818 90.7104 4.92059 91.5813 4.92059H96.5688C97.4 4.92059 97.8156 5.33818 97.8156 6.17334V11.8405C97.8156 12.278 98.0531 12.4967 98.5281 12.4967H103.159C103.991 12.4967 104.406 12.9143 104.406 13.7495V17.8656C104.406 18.3031 104.307 18.6213 104.109 18.8201C103.951 18.9792 103.634 19.0587 103.159 19.0587H98.5281C98.0531 19.0587 97.8156 19.2775 97.8156 19.7149V32.8986C97.8156 34.1315 98.0927 35.0263 98.6469 35.5831C99.201 36.1001 100.111 36.3586 101.378 36.3586H103.753C104.584 36.3586 105 36.7762 105 37.6113V41.7275C105 42.165 104.901 42.4831 104.703 42.682C104.545 42.8411 104.228 42.9206 103.753 42.9206H100.131C97.0042 42.9206 94.5698 42.0854 92.8281 40.4151C91.126 38.7448 90.275 36.3586 90.275 33.2565V19.7149C90.275 19.2775 90.0573 19.0587 89.6219 19.0587Z" fill="#F6BF8C"/>
<path d="M70.3038 42.9206H68.3301C65.26 42.9206 62.9274 42.0971 61.3325 40.45C59.7775 38.8029 59 36.4304 59 33.3324V14.1559C59 13.3324 59.4187 12.9206 60.256 12.9206H65.3397C66.177 12.9206 66.5957 13.3324 66.5957 14.1559V32.9794C66.5957 34.2343 66.8549 35.1363 67.3732 35.6853C67.9314 36.1951 68.8285 36.45 70.0646 36.45H72.2775C75.0287 36.45 76.4043 34.9598 76.4043 31.9794V14.1559C76.4043 13.3324 76.823 12.9206 77.6603 12.9206H82.6842C83.5614 12.9206 84 13.3324 84 14.1559V41.6853C84 42.5088 83.5614 42.9206 82.6842 42.9206H77.6603C76.823 42.9206 76.4043 42.5088 76.4043 41.6853V39.7441H76.1651C75.7265 40.8029 74.949 41.6069 73.8325 42.1559C72.7161 42.6657 71.5399 42.9206 70.3038 42.9206Z" fill="#F6BF8C"/>
<path d="M55.8108 42.9206H36.2486C35.4162 42.9206 35 42.5069 35 41.6795V6.16165C35 5.33428 35.4162 4.92059 36.2486 4.92059H41.3027C42.1351 4.92059 42.5514 5.33428 42.5514 6.16165V35.7106C42.5514 36.144 42.7892 36.3607 43.2649 36.3607H55.8108C56.6036 36.3607 57 36.7941 57 37.6609V41.6795C57 42.5069 56.6036 42.9206 55.8108 42.9206Z" fill="#272424"/>
<path fill-rule="evenodd" clip-rule="evenodd" d="M7.30354 13.8595C7.30354 12.444 8.43979 11.2965 9.84143 11.2965H17.1587C18.5603 11.2965 19.6966 12.444 19.6966 13.8595L19.6965 30.122C19.6965 31.2266 20.5919 32.122 21.6965 32.122H24.9999C26.1045 32.122 26.9999 31.2266 26.9999 30.122L27 13.8595C27 8.3704 22.5939 3.92059 17.1587 3.92059H9.84143C4.40621 3.92059 9.61741e-05 8.3704 9.61741e-05 13.8595L0 32.9818C0 38.4709 4.40612 42.9207 9.84134 42.9207H16.2043V42.9075H28.9765C29.0686 42.9075 29.1599 42.9108 29.2512 42.9141C30.2091 42.9486 31.1632 42.9829 33 39.2179C28.4138 39.2179 28.1298 38.8788 27.2481 37.8256C27.1323 37.6874 27.0063 37.5368 26.8588 37.3731C25.7379 36.1285 23.8752 36.1509 21.9979 36.1734C21.7473 36.1764 21.4965 36.1794 21.2471 36.1794C18.5434 36.1794 16.373 32.9566 15.2691 31.3174C15.1708 31.1715 15.081 31.0381 15 30.9207V35.5448H9.84134C8.4397 35.5448 7.30345 34.3973 7.30345 32.9818L7.30354 13.8595Z" fill="#272424"/>
</svg>
